<?xml version="1.0" encoding="UTF-8" standalone="no"?>
<svg width="438px" height="201px" viewBox="0 0 438 201" version="1.1" xmlns="http://www.w3.org/2000/svg" xmlns:xlink="http://www.w3.org/1999/xlink" xmlns:sketch="http://www.bohemiancoding.com/sketch/ns">
    <!-- Generator: Sketch 3.4.2 (15857) - http://www.bohemiancoding.com/sketch -->
    <title>Logo Swarrot</title>
    <desc>Created with Sketch.</desc>
    <defs></defs>
    <g id="Page-1" stroke="none" stroke-width="1" fill="none" fill-rule="evenodd" sketch:type="MSPage">
        <g id="Logo-Swarrot" sketch:type="MSArtboardGroup">
            <path d="M62.424,175 L61.16,175 L66.056,163.672 L67.176,163.672 L72.04,175 L70.76,175 L69.512,172.024 L63.656,172.024 L62.424,175 Z M64.088,170.968 L69.08,170.968 L66.584,164.952 L64.088,170.968 Z M78.472,175 L77.384,175 L77.384,162.904 L78.472,162.904 L78.472,175 Z M82.488,175 L81.4,175 L81.4,167.512 L82.488,167.512 L82.488,175 Z M82.712,164.632 C82.712,164.856001 82.6320008,165.039999 82.472,165.184 C82.3119992,165.328001 82.136001,165.4 81.944,165.4 C81.751999,165.4 81.5760008,165.328001 81.416,165.184 C81.2559992,165.039999 81.176,164.856001 81.176,164.632 C81.176,164.407999 81.2559992,164.224001 81.416,164.08 C81.5760008,163.935999 81.751999,163.864 81.944,163.864 C82.136001,163.864 82.3119992,163.935999 82.472,164.08 C82.6320008,164.224001 82.712,164.407999 82.712,164.632 L82.712,164.632 Z M86.504,173.736 L86.504,175 L85.416,175 L85.416,162.904 L86.504,162.904 L86.504,168.808 L86.536,168.808 C86.8560016,168.317331 87.2719974,167.946668 87.784,167.696 C88.2960026,167.445332 88.8239973,167.32 89.368,167.32 C89.9546696,167.32 90.485331,167.421332 90.96,167.624 C91.434669,167.826668 91.8399983,168.103998 92.176,168.456 C92.5120017,168.808002 92.7733324,169.223998 92.96,169.704 C93.1466676,170.184002 93.24,170.701331 93.24,171.256 C93.24,171.810669 93.1466676,172.327998 92.96,172.808 C92.7733324,173.288002 92.5120017,173.703998 92.176,174.056 C91.8399983,174.408002 91.434669,174.685332 90.96,174.888 C90.485331,175.090668 89.9546696,175.192 89.368,175.192 C88.8239973,175.192 88.2960026,175.069335 87.784,174.824 C87.2719974,174.578665 86.8560016,174.216002 86.536,173.736 L86.504,173.736 Z M92.088,171.256 C92.088,170.839998 92.0240006,170.448002 91.896,170.08 C91.7679994,169.711998 91.5840012,169.392001 91.344,169.12 C91.1039988,168.847999 90.8080018,168.632001 90.456,168.472 C90.1039982,168.311999 89.7040022,168.232 89.256,168.232 C88.8399979,168.232 88.4560018,168.309333 88.104,168.464 C87.7519982,168.618667 87.4480013,168.831999 87.192,169.104 C86.9359987,169.376001 86.7360007,169.695998 86.592,170.064 C86.4479993,170.432002 86.376,170.829331 86.376,171.256 C86.376,171.682669 86.4479993,172.079998 86.592,172.448 C86.7360007,172.816002 86.9359987,173.133332 87.192,173.4 C87.4480013,173.666668 87.7519982,173.877333 88.104,174.032 C88.4560018,174.186667 88.8399979,174.264 89.256,174.264 C89.7040022,174.264 90.1039982,174.186667 90.456,174.032 C90.8080018,173.877333 91.1039988,173.664001 91.344,173.392 C91.5840012,173.119999 91.7679994,172.800002 91.896,172.432 C92.0240006,172.063998 92.088,171.672002 92.088,171.256 L92.088,171.256 Z M102.952,168.424 L100.84,168.424 L100.84,172.792 C100.84,173.069335 100.866666,173.298666 100.92,173.48 C100.973334,173.661334 101.050666,173.802666 101.152,173.904 C101.253334,174.005334 101.373333,174.074666 101.512,174.112 C101.650667,174.149334 101.799999,174.168 101.96,174.168 C102.109334,174.168 102.266666,174.146667 102.432,174.104 C102.597334,174.061333 102.754666,174.002667 102.904,173.928 L102.952,174.872 C102.759999,174.946667 102.560001,175.002666 102.352,175.04 C102.143999,175.077334 101.917335,175.096 101.672,175.096 C101.469332,175.096 101.256001,175.069334 101.032,175.016 C100.807999,174.962666 100.600001,174.861334 100.408,174.712 C100.215999,174.562666 100.058667,174.360001 99.936,174.104 C99.8133327,173.847999 99.752,173.512002 99.752,173.096 L99.752,168.424 L98.2,168.424 L98.2,167.512 L99.752,167.512 L99.752,165.4 L100.84,165.4 L100.84,167.512 L102.952,167.512 L102.952,168.424 Z M112.088,171.256 C112.088,171.821336 111.989334,172.343998 111.792,172.824 C111.594666,173.304002 111.320002,173.719998 110.968,174.072 C110.615998,174.424002 110.194669,174.698666 109.704,174.896 C109.213331,175.093334 108.67467,175.192 108.088,175.192 C107.511997,175.192 106.978669,175.093334 106.488,174.896 C105.997331,174.698666 105.576002,174.424002 105.224,174.072 C104.871998,173.719998 104.597334,173.304002 104.4,172.824 C104.202666,172.343998 104.104,171.821336 104.104,171.256 C104.104,170.690664 104.202666,170.168002 104.4,169.688 C104.597334,169.207998 104.871998,168.792002 105.224,168.44 C105.576002,168.087998 105.997331,167.813334 106.488,167.616 C106.978669,167.418666 107.511997,167.32 108.088,167.32 C108.67467,167.32 109.213331,167.418666 109.704,167.616 C110.194669,167.813334 110.615998,168.087998 110.968,168.44 C111.320002,168.792002 111.594666,169.207998 111.792,169.688 C111.989334,170.168002 112.088,170.690664 112.088,171.256 L112.088,171.256 Z M110.936,171.256 C110.936,170.839998 110.869334,170.448002 110.736,170.08 C110.602666,169.711998 110.413335,169.392001 110.168,169.12 C109.922665,168.847999 109.624002,168.632001 109.272,168.472 C108.919998,168.311999 108.525336,168.232 108.088,168.232 C107.650664,168.232 107.258668,168.311999 106.912,168.472 C106.565332,168.632001 106.269335,168.847999 106.024,169.12 C105.778665,169.392001 105.589334,169.711998 105.456,170.08 C105.322666,170.448002 105.256,170.839998 105.256,171.256 C105.256,171.672002 105.322666,172.063998 105.456,172.432 C105.589334,172.800002 105.778665,173.119999 106.024,173.392 C106.269335,173.664001 106.565332,173.877333 106.912,174.032 C107.258668,174.186667 107.650664,174.264 108.088,174.264 C108.525336,174.264 108.919998,174.186667 109.272,174.032 C109.624002,173.877333 109.922665,173.664001 110.168,173.392 C110.413335,173.119999 110.602666,172.800002 110.736,172.432 C110.869334,172.063998 110.936,171.672002 110.936,171.256 L110.936,171.256 Z M123.816,169.224 C123.634666,168.935999 123.370668,168.698668 123.024,168.512 C122.677332,168.325332 122.301335,168.232 121.896,168.232 C121.458664,168.232 121.064002,168.309333 120.712,168.464 C120.359998,168.618667 120.058668,168.831999 119.808,169.104 C119.557332,169.376001 119.365334,169.695998 119.232,170.064 C119.098666,170.432002 119.032,170.829331 119.032,171.256 C119.032,171.682669 119.098666,172.077332 119.232,172.44 C119.365334,172.802668 119.554665,173.119999 119.8,173.392 C120.045335,173.664001 120.343998,173.877333 120.696,174.032 C121.048002,174.186667 121.442664,174.264 121.88,174.264 C122.360002,174.264 122.765332,174.173334 123.096,173.992 C123.426668,173.810666 123.698666,173.576001 123.912,173.288 L124.728,173.896 C124.407998,174.290669 124.016002,174.605332 123.552,174.84 C123.087998,175.074668 122.53067,175.192 121.88,175.192 C121.271997,175.192 120.722669,175.093334 120.232,174.896 C119.741331,174.698666 119.322668,174.424002 118.976,174.072 C118.629332,173.719998 118.360001,173.304002 118.168,172.824 C117.975999,172.343998 117.88,171.821336 117.88,171.256 C117.88,170.690664 117.975999,170.168002 118.168,169.688 C118.360001,169.207998 118.629332,168.792002 118.976,168.44 C119.322668,168.087998 119.741331,167.813334 120.232,167.616 C120.722669,167.418666 121.271997,167.32 121.88,167.32 C122.381336,167.32 122.890664,167.429332 123.408,167.648 C123.925336,167.866668 124.343998,168.189331 124.664,168.616 L123.816,169.224 Z M133.864,171.256 C133.864,171.821336 133.765334,172.343998 133.568,172.824 C133.370666,173.304002 133.096002,173.719998 132.744,174.072 C132.391998,174.424002 131.970669,174.698666 131.48,174.896 C130.989331,175.093334 130.45067,175.192 129.864,175.192 C129.287997,175.192 128.754669,175.093334 128.264,174.896 C127.773331,174.698666 127.352002,174.424002 127,174.072 C126.647998,173.719998 126.373334,173.304002 126.176,172.824 C125.978666,172.343998 125.88,171.821336 125.88,171.256 C125.88,170.690664 125.978666,170.168002 126.176,169.688 C126.373334,169.207998 126.647998,168.792002 127,168.44 C127.352002,168.087998 127.773331,167.813334 128.264,167.616 C128.754669,167.418666 129.287997,167.32 129.864,167.32 C130.45067,167.32 130.989331,167.418666 131.48,167.616 C131.970669,167.813334 132.391998,168.087998 132.744,168.44 C133.096002,168.792002 133.370666,169.207998 133.568,169.688 C133.765334,170.168002 133.864,170.690664 133.864,171.256 L133.864,171.256 Z M132.712,171.256 C132.712,170.839998 132.645334,170.448002 132.512,170.08 C132.378666,169.711998 132.189335,169.392001 131.944,169.12 C131.698665,168.847999 131.400002,168.632001 131.048,168.472 C130.695998,168.311999 130.301336,168.232 129.864,168.232 C129.426664,168.232 129.034668,168.311999 128.688,168.472 C128.341332,168.632001 128.045335,168.847999 127.8,169.12 C127.554665,169.392001 127.365334,169.711998 127.232,170.08 C127.098666,170.448002 127.032,170.839998 127.032,171.256 C127.032,171.672002 127.098666,172.063998 127.232,172.432 C127.365334,172.800002 127.554665,173.119999 127.8,173.392 C128.045335,173.664001 128.341332,173.877333 128.688,174.032 C129.034668,174.186667 129.426664,174.264 129.864,174.264 C130.301336,174.264 130.695998,174.186667 131.048,174.032 C131.400002,173.877333 131.698665,173.664001 131.944,173.392 C132.189335,173.119999 132.378666,172.800002 132.512,172.432 C132.645334,172.063998 132.712,171.672002 132.712,171.256 L132.712,171.256 Z M137.176,167.512 C137.197333,167.714668 137.213333,167.938665 137.224,168.184 C137.234667,168.429335 137.24,168.631999 137.24,168.792 L137.272,168.792 C137.485334,168.354664 137.831998,168.000001 138.312,167.728 C138.792002,167.455999 139.298664,167.32 139.832,167.32 C140.781338,167.32 141.493331,167.602664 141.968,168.168 C142.442669,168.733336 142.68,169.479995 142.68,170.408 L142.68,175 L141.592,175 L141.592,170.856 C141.592,170.461331 141.56,170.104002 141.496,169.784 C141.432,169.463998 141.322667,169.189334 141.168,168.96 C141.013333,168.730666 140.805335,168.552001 140.544,168.424 C140.282665,168.295999 139.954669,168.232 139.56,168.232 C139.271999,168.232 138.992001,168.290666 138.72,168.408 C138.447999,168.525334 138.205334,168.703999 137.992,168.944 C137.778666,169.184001 137.608001,169.487998 137.48,169.856 C137.351999,170.224002 137.288,170.658664 137.288,171.16 L137.288,175 L136.2,175 L136.2,169.16 C136.2,168.957332 136.194667,168.696002 136.184,168.376 C136.173333,168.055998 136.157333,167.768001 136.136,167.512 L137.176,167.512 Z M149.48,169.288 C149.319999,168.978665 149.077335,168.725334 148.752,168.528 C148.426665,168.330666 148.056002,168.232 147.64,168.232 C147.447999,168.232 147.256001,168.253333 147.064,168.296 C146.871999,168.338667 146.701334,168.408 146.552,168.504 C146.402666,168.6 146.282667,168.722666 146.192,168.872 C146.101333,169.021334 146.056,169.197332 146.056,169.4 C146.056,169.752002 146.199999,170.021332 146.488,170.208 C146.776001,170.394668 147.22933,170.551999 147.848,170.68 C148.733338,170.861334 149.386665,171.125332 149.808,171.472 C150.229335,171.818668 150.44,172.28533 150.44,172.872 C150.44,173.298669 150.357334,173.658665 150.192,173.952 C150.026666,174.245335 149.810668,174.485332 149.544,174.672 C149.277332,174.858668 148.976002,174.992 148.64,175.072 C148.303998,175.152 147.965335,175.192 147.624,175.192 C147.058664,175.192 146.509336,175.074668 145.976,174.84 C145.442664,174.605332 145.005335,174.237336 144.664,173.736 L145.528,173.096 C145.720001,173.426668 146.002665,173.703999 146.376,173.928 C146.749335,174.152001 147.159998,174.264 147.608,174.264 C147.842668,174.264 148.066666,174.242667 148.28,174.2 C148.493334,174.157333 148.679999,174.082667 148.84,173.976 C149.000001,173.869333 149.128,173.733334 149.224,173.568 C149.32,173.402666 149.368,173.197335 149.368,172.952 C149.368,172.557331 149.178669,172.261334 148.8,172.064 C148.421331,171.866666 147.87467,171.682668 147.16,171.512 C146.935999,171.458666 146.698668,171.392 146.448,171.312 C146.197332,171.232 145.965334,171.114667 145.752,170.96 C145.538666,170.805333 145.362667,170.610668 145.224,170.376 C145.085333,170.141332 145.016,169.848002 145.016,169.496 C145.016,169.111998 145.090666,168.784001 145.24,168.512 C145.389334,168.239999 145.589332,168.016001 145.84,167.84 C146.090668,167.663999 146.375998,167.533334 146.696,167.448 C147.016002,167.362666 147.346665,167.32 147.688,167.32 C148.210669,167.32 148.717331,167.437332 149.208,167.672 C149.698669,167.906668 150.066665,168.237331 150.312,168.664 L149.48,169.288 Z M158.04,175 C158.018667,174.797332 158.002667,174.573335 157.992,174.328 C157.981333,174.082665 157.976,173.880001 157.976,173.72 L157.944,173.72 C157.730666,174.157336 157.384002,174.511999 156.904,174.784 C156.423998,175.056001 155.917336,175.192 155.384,175.192 C154.434662,175.192 153.722669,174.909336 153.248,174.344 C152.773331,173.778664 152.536,173.032005 152.536,172.104 L152.536,167.512 L153.624,167.512 L153.624,171.656 C153.624,172.050669 153.656,172.407998 153.72,172.728 C153.784,173.048002 153.893333,173.322666 154.048,173.552 C154.202667,173.781334 154.410665,173.959999 154.672,174.088 C154.933335,174.216001 155.261331,174.28 155.656,174.28 C155.944001,174.28 156.223999,174.221334 156.496,174.104 C156.768001,173.986666 157.010666,173.808001 157.224,173.568 C157.437334,173.327999 157.607999,173.024002 157.736,172.656 C157.864001,172.287998 157.928,171.853336 157.928,171.352 L157.928,167.512 L159.016,167.512 L159.016,173.352 C159.016,173.554668 159.021333,173.815998 159.032,174.136 C159.042667,174.456002 159.058667,174.743999 159.08,175 L158.04,175 Z M162.968,168.792 C163.181334,168.354664 163.509331,168.000001 163.952,167.728 C164.394669,167.455999 164.887997,167.32 165.432,167.32 C165.634668,167.32 165.845332,167.341333 166.064,167.384 C166.282668,167.426667 166.495999,167.509333 166.704,167.632 C166.912001,167.754667 167.103999,167.917332 167.28,168.12 C167.456001,168.322668 167.607999,168.583998 167.736,168.904 C167.992001,168.391997 168.341331,168.000001 168.784,167.728 C169.226669,167.455999 169.751997,167.32 170.36,167.32 C171.309338,167.32 172.021331,167.602664 172.496,168.168 C172.970669,168.733336 173.208,169.479995 173.208,170.408 L173.208,175 L172.12,175 L172.12,170.856 C172.12,170.066663 171.973335,169.432002 171.68,168.952 C171.386665,168.471998 170.888004,168.232 170.184,168.232 C169.789331,168.232 169.456001,168.311999 169.184,168.472 C168.911999,168.632001 168.693334,168.842665 168.528,169.104 C168.362666,169.365335 168.242667,169.661332 168.168,169.992 C168.093333,170.322668 168.056,170.663998 168.056,171.016 L168.056,175 L166.968,175 L166.968,170.632 C166.968,170.269332 166.941334,169.938668 166.888,169.64 C166.834666,169.341332 166.741334,169.088001 166.608,168.88 C166.474666,168.671999 166.290668,168.512001 166.056,168.4 C165.821332,168.287999 165.522668,168.232 165.16,168.232 C164.903999,168.232 164.645335,168.290666 164.384,168.408 C164.122665,168.525334 163.888001,168.703999 163.68,168.944 C163.471999,169.184001 163.304001,169.487998 163.176,169.856 C163.047999,170.224002 162.984,170.658664 162.984,171.16 L162.984,175 L161.896,175 L161.896,169.16 C161.896,168.957332 161.890667,168.696002 161.88,168.376 C161.869333,168.055998 161.853333,167.768001 161.832,167.512 L162.872,167.512 C162.893333,167.714668 162.909333,167.938665 162.92,168.184 C162.930667,168.429335 162.936,168.631999 162.936,168.792 L162.968,168.792 Z M181.736,170.68 C181.704,169.975996 181.477335,169.392002 181.056,168.928 C180.634665,168.463998 180.034671,168.232 179.256,168.232 C178.893332,168.232 178.557335,168.298666 178.248,168.432 C177.938665,168.565334 177.666668,168.746666 177.432,168.976 C177.197332,169.205334 177.010667,169.466665 176.872,169.76 C176.733333,170.053335 176.653333,170.359998 176.632,170.68 L181.736,170.68 Z M182.84,171.032 L182.84,171.272 C182.84,171.357334 182.834667,171.448 182.824,171.544 L176.616,171.544 C176.626667,171.917335 176.701333,172.269332 176.84,172.6 C176.978667,172.930668 177.170665,173.218665 177.416,173.464 C177.661335,173.709335 177.949332,173.903999 178.28,174.048 C178.610668,174.192001 178.967998,174.264 179.352,174.264 C179.917336,174.264 180.405331,174.133335 180.816,173.872 C181.226669,173.610665 181.538666,173.309335 181.752,172.968 L182.568,173.608 C182.119998,174.173336 181.626669,174.578665 181.088,174.824 C180.549331,175.069335 179.97067,175.192 179.352,175.192 C178.797331,175.192 178.282669,175.093334 177.808,174.896 C177.333331,174.698666 176.925335,174.424002 176.584,174.072 C176.242665,173.719998 175.973334,173.304002 175.776,172.824 C175.578666,172.343998 175.48,171.821336 175.48,171.256 C175.48,170.690664 175.575999,170.168002 175.768,169.688 C175.960001,169.207998 176.226665,168.792002 176.568,168.44 C176.909335,168.087998 177.309331,167.813334 177.768,167.616 C178.226669,167.418666 178.722664,167.32 179.256,167.32 C179.84267,167.32 180.359998,167.418666 180.808,167.616 C181.256002,167.813334 181.629332,168.079998 181.928,168.416 C182.226668,168.752002 182.453333,169.143998 182.608,169.592 C182.762667,170.040002 182.84,170.519997 182.84,171.032 L182.84,171.032 Z M190.248,168.792 C190.461334,168.354664 190.789331,168.000001 191.232,167.728 C191.674669,167.455999 192.167997,167.32 192.712,167.32 C192.914668,167.32 193.125332,167.341333 193.344,167.384 C193.562668,167.426667 193.775999,167.509333 193.984,167.632 C194.192001,167.754667 194.383999,167.917332 194.56,168.12 C194.736001,168.322668 194.887999,168.583998 195.016,168.904 C195.272001,168.391997 195.621331,168.000001 196.064,167.728 C196.506669,167.455999 197.031997,167.32 197.64,167.32 C198.589338,167.32 199.301331,167.602664 199.776,168.168 C200.250669,168.733336 200.488,169.479995 200.488,170.408 L200.488,175 L199.4,175 L199.4,170.856 C199.4,170.066663 199.253335,169.432002 198.96,168.952 C198.666665,168.471998 198.168004,168.232 197.464,168.232 C197.069331,168.232 196.736001,168.311999 196.464,168.472 C196.191999,168.632001 195.973334,168.842665 195.808,169.104 C195.642666,169.365335 195.522667,169.661332 195.448,169.992 C195.373333,170.322668 195.336,170.663998 195.336,171.016 L195.336,175 L194.248,175 L194.248,170.632 C194.248,170.269332 194.221334,169.938668 194.168,169.64 C194.114666,169.341332 194.021334,169.088001 193.888,168.88 C193.754666,168.671999 193.570668,168.512001 193.336,168.4 C193.101332,168.287999 192.802668,168.232 192.44,168.232 C192.183999,168.232 191.925335,168.290666 191.664,168.408 C191.402665,168.525334 191.168001,168.703999 190.96,168.944 C190.751999,169.184001 190.584001,169.487998 190.456,169.856 C190.327999,170.224002 190.264,170.658664 190.264,171.16 L190.264,175 L189.176,175 L189.176,169.16 C189.176,168.957332 189.170667,168.696002 189.16,168.376 C189.149333,168.055998 189.133333,167.768001 189.112,167.512 L190.152,167.512 C190.173333,167.714668 190.189333,167.938665 190.2,168.184 C190.210667,168.429335 190.216,168.631999 190.216,168.792 L190.248,168.792 Z M209.016,170.68 C208.984,169.975996 208.757335,169.392002 208.336,168.928 C207.914665,168.463998 207.314671,168.232 206.536,168.232 C206.173332,168.232 205.837335,168.298666 205.528,168.432 C205.218665,168.565334 204.946668,168.746666 204.712,168.976 C204.477332,169.205334 204.290667,169.466665 204.152,169.76 C204.013333,170.053335 203.933333,170.359998 203.912,170.68 L209.016,170.68 Z M210.12,171.032 L210.12,171.272 C210.12,171.357334 210.114667,171.448 210.104,171.544 L203.896,171.544 C203.906667,171.917335 203.981333,172.269332 204.12,172.6 C204.258667,172.930668 204.450665,173.218665 204.696,173.464 C204.941335,173.709335 205.229332,173.903999 205.56,174.048 C205.890668,174.192001 206.247998,174.264 206.632,174.264 C207.197336,174.264 207.685331,174.133335 208.096,173.872 C208.506669,173.610665 208.818666,173.309335 209.032,172.968 L209.848,173.608 C209.399998,174.173336 208.906669,174.578665 208.368,174.824 C207.829331,175.069335 207.25067,175.192 206.632,175.192 C206.077331,175.192 205.562669,175.093334 205.088,174.896 C204.613331,174.698666 204.205335,174.424002 203.864,174.072 C203.522665,173.719998 203.253334,173.304002 203.056,172.824 C202.858666,172.343998 202.76,171.821336 202.76,171.256 C202.76,170.690664 202.855999,170.168002 203.048,169.688 C203.240001,169.207998 203.506665,168.792002 203.848,168.44 C204.189335,168.087998 204.589331,167.813334 205.048,167.616 C205.506669,167.418666 206.002664,167.32 206.536,167.32 C207.12267,167.32 207.639998,167.418666 208.088,167.616 C208.536002,167.813334 208.909332,168.079998 209.208,168.416 C209.506668,168.752002 209.733333,169.143998 209.888,169.592 C210.042667,170.040002 210.12,170.519997 210.12,171.032 L210.12,171.032 Z M216.44,169.288 C216.279999,168.978665 216.037335,168.725334 215.712,168.528 C215.386665,168.330666 215.016002,168.232 214.6,168.232 C214.407999,168.232 214.216001,168.253333 214.024,168.296 C213.831999,168.338667 213.661334,168.408 213.512,168.504 C213.362666,168.6 213.242667,168.722666 213.152,168.872 C213.061333,169.021334 213.016,169.197332 213.016,169.4 C213.016,169.752002 213.159999,170.021332 213.448,170.208 C213.736001,170.394668 214.18933,170.551999 214.808,170.68 C215.693338,170.861334 216.346665,171.125332 216.768,171.472 C217.189335,171.818668 217.4,172.28533 217.4,172.872 C217.4,173.298669 217.317334,173.658665 217.152,173.952 C216.986666,174.245335 216.770668,174.485332 216.504,174.672 C216.237332,174.858668 215.936002,174.992 215.6,175.072 C215.263998,175.152 214.925335,175.192 214.584,175.192 C214.018664,175.192 213.469336,175.074668 212.936,174.84 C212.402664,174.605332 211.965335,174.237336 211.624,173.736 L212.488,173.096 C212.680001,173.426668 212.962665,173.703999 213.336,173.928 C213.709335,174.152001 214.119998,174.264 214.568,174.264 C214.802668,174.264 215.026666,174.242667 215.24,174.2 C215.453334,174.157333 215.639999,174.082667 215.8,173.976 C215.960001,173.869333 216.088,173.733334 216.184,173.568 C216.28,173.402666 216.328,173.197335 216.328,172.952 C216.328,172.557331 216.138669,172.261334 215.76,172.064 C215.381331,171.866666 214.83467,171.682668 214.12,171.512 C213.895999,171.458666 213.658668,171.392 213.408,171.312 C213.157332,171.232 212.925334,171.114667 212.712,170.96 C212.498666,170.805333 212.322667,170.610668 212.184,170.376 C212.045333,170.141332 211.976,169.848002 211.976,169.496 C211.976,169.111998 212.050666,168.784001 212.2,168.512 C212.349334,168.239999 212.549332,168.016001 212.8,167.84 C213.050668,167.663999 213.335998,167.533334 213.656,167.448 C213.976002,167.362666 214.306665,167.32 214.648,167.32 C215.170669,167.32 215.677331,167.437332 216.168,167.672 C216.658669,167.906668 217.026665,168.237331 217.272,168.664 L216.44,169.288 Z M223.544,169.288 C223.383999,168.978665 223.141335,168.725334 222.816,168.528 C222.490665,168.330666 222.120002,168.232 221.704,168.232 C221.511999,168.232 221.320001,168.253333 221.128,168.296 C220.935999,168.338667 220.765334,168.408 220.616,168.504 C220.466666,168.6 220.346667,168.722666 220.256,168.872 C220.165333,169.021334 220.12,169.197332 220.12,169.4 C220.12,169.752002 220.263999,170.021332 220.552,170.208 C220.840001,170.394668 221.29333,170.551999 221.912,170.68 C222.797338,170.861334 223.450665,171.125332 223.872,171.472 C224.293335,171.818668 224.504,172.28533 224.504,172.872 C224.504,173.298669 224.421334,173.658665 224.256,173.952 C224.090666,174.245335 223.874668,174.485332 223.608,174.672 C223.341332,174.858668 223.040002,174.992 222.704,175.072 C222.367998,175.152 222.029335,175.192 221.688,175.192 C221.122664,175.192 220.573336,175.074668 220.04,174.84 C219.506664,174.605332 219.069335,174.237336 218.728,173.736 L219.592,173.096 C219.784001,173.426668 220.066665,173.703999 220.44,173.928 C220.813335,174.152001 221.223998,174.264 221.672,174.264 C221.906668,174.264 222.130666,174.242667 222.344,174.2 C222.557334,174.157333 222.743999,174.082667 222.904,173.976 C223.064001,173.869333 223.192,173.733334 223.288,173.568 C223.384,173.402666 223.432,173.197335 223.432,172.952 C223.432,172.557331 223.242669,172.261334 222.864,172.064 C222.485331,171.866666 221.93867,171.682668 221.224,171.512 C220.999999,171.458666 220.762668,171.392 220.512,171.312 C220.261332,171.232 220.029334,171.114667 219.816,170.96 C219.602666,170.805333 219.426667,170.610668 219.288,170.376 C219.149333,170.141332 219.08,169.848002 219.08,169.496 C219.08,169.111998 219.154666,168.784001 219.304,168.512 C219.453334,168.239999 219.653332,168.016001 219.904,167.84 C220.154668,167.663999 220.439998,167.533334 220.76,167.448 C221.080002,167.362666 221.410665,167.32 221.752,167.32 C222.274669,167.32 222.781331,167.437332 223.272,167.672 C223.762669,167.906668 224.130665,168.237331 224.376,168.664 L223.544,169.288 Z M231.384,170.168 C231.384,169.51733 231.213335,169.032002 230.872,168.712 C230.530665,168.391998 230.03467,168.232 229.384,168.232 C228.935998,168.232 228.520002,168.311999 228.136,168.472 C227.751998,168.632001 227.426668,168.845332 227.16,169.112 L226.552,168.392 C226.861335,168.082665 227.269331,167.826668 227.776,167.624 C228.282669,167.421332 228.855997,167.32 229.496,167.32 C229.901335,167.32 230.279998,167.375999 230.632,167.488 C230.984002,167.600001 231.293332,167.767999 231.56,167.992 C231.826668,168.216001 232.034666,168.498665 232.184,168.84 C232.333334,169.181335 232.408,169.581331 232.408,170.04 L232.408,173.32 C232.408,173.608001 232.418667,173.906665 232.44,174.216 C232.461333,174.525335 232.493333,174.786666 232.536,175 L231.56,175 C231.528,174.818666 231.501333,174.621334 231.48,174.408 C231.458667,174.194666 231.448,173.986668 231.448,173.784 L231.416,173.784 C231.074665,174.285336 230.688002,174.645332 230.256,174.864 C229.823998,175.082668 229.304003,175.192 228.696,175.192 C228.407999,175.192 228.112002,175.152 227.808,175.072 C227.503998,174.992 227.226668,174.861334 226.976,174.68 C226.725332,174.498666 226.517334,174.264001 226.352,173.976 C226.186666,173.687999 226.104,173.336002 226.104,172.92 C226.104,172.343997 226.250665,171.888002 226.544,171.552 C226.837335,171.215998 227.229331,170.965334 227.72,170.8 C228.210669,170.634666 228.77333,170.528 229.408,170.48 C230.04267,170.432 230.70133,170.408 231.384,170.408 L231.384,170.168 Z M231.064,171.256 C230.615998,171.256 230.165336,171.274666 229.712,171.312 C229.258664,171.349334 228.848002,171.423999 228.48,171.536 C228.111998,171.648001 227.810668,171.810666 227.576,172.024 C227.341332,172.237334 227.224,172.519998 227.224,172.872 C227.224,173.138668 227.274666,173.362666 227.376,173.544 C227.477334,173.725334 227.613332,173.871999 227.784,173.984 C227.954668,174.096001 228.143999,174.176 228.352,174.224 C228.560001,174.272 228.770666,174.296 228.984,174.296 C229.368002,174.296 229.709332,174.229334 230.008,174.096 C230.306668,173.962666 230.557332,173.781334 230.76,173.552 C230.962668,173.322666 231.117333,173.058668 231.224,172.76 C231.330667,172.461332 231.384,172.146668 231.384,171.816 L231.384,171.256 L231.064,171.256 Z M235.608,176.504 C235.906668,176.888002 236.314664,177.213332 236.832,177.48 C237.349336,177.746668 237.895997,177.88 238.472,177.88 C239.005336,177.88 239.458665,177.802667 239.832,177.648 C240.205335,177.493333 240.506666,177.282668 240.736,177.016 C240.965334,176.749332 241.133333,176.437335 241.24,176.08 C241.346667,175.722665 241.4,175.341335 241.4,174.936 L241.4,173.528 L241.368,173.528 C241.079999,173.997336 240.672003,174.359999 240.144,174.616 C239.615997,174.872001 239.080003,175 238.536,175 C237.94933,175 237.418669,174.904001 236.944,174.712 C236.469331,174.519999 236.064002,174.256002 235.728,173.92 C235.391998,173.583998 235.130668,173.181336 234.944,172.712 C234.757332,172.242664 234.664,171.736003 234.664,171.192 C234.664,170.658664 234.757332,170.157336 234.944,169.688 C235.130668,169.218664 235.391998,168.808002 235.728,168.456 C236.064002,168.103998 236.469331,167.826668 236.944,167.624 C237.418669,167.421332 237.94933,167.32 238.536,167.32 C239.080003,167.32 239.613331,167.447999 240.136,167.704 C240.658669,167.960001 241.069332,168.327998 241.368,168.808 L241.4,168.808 L241.4,167.512 L242.488,167.512 L242.488,174.936 C242.488,175.341335 242.432001,175.773331 242.32,176.232 C242.207999,176.690669 242.000002,177.111998 241.696,177.496 C241.391998,177.880002 240.978669,178.199999 240.456,178.456 C239.933331,178.712001 239.256004,178.84 238.424,178.84 C237.730663,178.84 237.069336,178.706668 236.44,178.44 C235.810664,178.173332 235.272002,177.805336 234.824,177.336 L235.608,176.504 Z M235.816,171.16 C235.816,171.554669 235.879999,171.927998 236.008,172.28 C236.136001,172.632002 236.319999,172.941332 236.56,173.208 C236.800001,173.474668 237.095998,173.685333 237.448,173.84 C237.800002,173.994667 238.199998,174.072 238.648,174.072 C239.064002,174.072 239.447998,174.002667 239.8,173.864 C240.152002,173.725333 240.455999,173.528001 240.712,173.272 C240.968001,173.015999 241.167999,172.709335 241.312,172.352 C241.456001,171.994665 241.528,171.597336 241.528,171.16 C241.528,170.765331 241.456001,170.392002 241.312,170.04 C241.167999,169.687998 240.968001,169.378668 240.712,169.112 C240.455999,168.845332 240.152002,168.632001 239.8,168.472 C239.447998,168.311999 239.064002,168.232 238.648,168.232 C238.199998,168.232 237.800002,168.311999 237.448,168.472 C237.095998,168.632001 236.800001,168.845332 236.56,169.112 C236.319999,169.378668 236.136001,169.687998 236.008,170.04 C235.879999,170.392002 235.816,170.765331 235.816,171.16 L235.816,171.16 Z M251.032,170.68 C251,169.975996 250.773335,169.392002 250.352,168.928 C249.930665,168.463998 249.330671,168.232 248.552,168.232 C248.189332,168.232 247.853335,168.298666 247.544,168.432 C247.234665,168.565334 246.962668,168.746666 246.728,168.976 C246.493332,169.205334 246.306667,169.466665 246.168,169.76 C246.029333,170.053335 245.949333,170.359998 245.928,170.68 L251.032,170.68 Z M252.136,171.032 L252.136,171.272 C252.136,171.357334 252.130667,171.448 252.12,171.544 L245.912,171.544 C245.922667,171.917335 245.997333,172.269332 246.136,172.6 C246.274667,172.930668 246.466665,173.218665 246.712,173.464 C246.957335,173.709335 247.245332,173.903999 247.576,174.048 C247.906668,174.192001 248.263998,174.264 248.648,174.264 C249.213336,174.264 249.701331,174.133335 250.112,173.872 C250.522669,173.610665 250.834666,173.309335 251.048,172.968 L251.864,173.608 C251.415998,174.173336 250.922669,174.578665 250.384,174.824 C249.845331,175.069335 249.26667,175.192 248.648,175.192 C248.093331,175.192 247.578669,175.093334 247.104,174.896 C246.629331,174.698666 246.221335,174.424002 245.88,174.072 C245.538665,173.719998 245.269334,173.304002 245.072,172.824 C244.874666,172.343998 244.776,171.821336 244.776,171.256 C244.776,170.690664 244.871999,170.168002 245.064,169.688 C245.256001,169.207998 245.522665,168.792002 245.864,168.44 C246.205335,168.087998 246.605331,167.813334 247.064,167.616 C247.522669,167.418666 248.018664,167.32 248.552,167.32 C249.13867,167.32 249.655998,167.418666 250.104,167.616 C250.552002,167.813334 250.925332,168.079998 251.224,168.416 C251.522668,168.752002 251.749333,169.143998 251.904,169.592 C252.058667,170.040002 252.136,170.519997 252.136,171.032 L252.136,171.032 Z M261.64,168.424 L259.88,168.424 L259.88,175 L258.792,175 L258.792,168.424 L257.224,168.424 L257.224,167.512 L258.792,167.512 L258.792,165.464 C258.792,164.610662 258.999998,163.938669 259.416,163.448 C259.832002,162.957331 260.471996,162.712 261.336,162.712 C261.474667,162.712 261.623999,162.72 261.784,162.736 C261.944001,162.752 262.093333,162.781333 262.232,162.824 L262.04,163.784 C261.922666,163.752 261.805334,163.725333 261.688,163.704 C261.570666,163.682667 261.437334,163.672 261.288,163.672 C260.999999,163.672 260.762668,163.72 260.576,163.816 C260.389332,163.912 260.245334,164.047999 260.144,164.224 C260.042666,164.400001 259.973334,164.605332 259.936,164.84 C259.898666,165.074668 259.88,165.325332 259.88,165.592 L259.88,167.512 L261.64,167.512 L261.64,168.424 Z M263.192,169.16 C263.192,168.957332 263.186667,168.696002 263.176,168.376 C263.165333,168.055998 263.149333,167.768001 263.128,167.512 L264.168,167.512 C264.189333,167.714668 264.205333,167.938665 264.216,168.184 C264.226667,168.429335 264.232,168.631999 264.232,168.792 L264.264,168.792 C264.477334,168.354664 264.797331,168.000001 265.224,167.728 C265.650669,167.455999 266.130664,167.32 266.664,167.32 C266.802667,167.32 266.927999,167.325333 267.04,167.336 C267.152001,167.346667 267.266666,167.368 267.384,167.4 L267.24,168.424 C267.176,168.402667 267.069334,168.381333 266.92,168.36 C266.770666,168.338667 266.621334,168.328 266.472,168.328 C266.183999,168.328 265.906668,168.381333 265.64,168.488 C265.373332,168.594667 265.141334,168.762666 264.944,168.992 C264.746666,169.221334 264.586667,169.514665 264.464,169.872 C264.341333,170.229335 264.28,170.658664 264.28,171.16 L264.28,175 L263.192,175 L263.192,169.16 Z M276.104,171.256 C276.104,171.821336 276.005334,172.343998 275.808,172.824 C275.610666,173.304002 275.336002,173.719998 274.984,174.072 C274.631998,174.424002 274.210669,174.698666 273.72,174.896 C273.229331,175.093334 272.69067,175.192 272.104,175.192 C271.527997,175.192 270.994669,175.093334 270.504,174.896 C270.013331,174.698666 269.592002,174.424002 269.24,174.072 C268.887998,173.719998 268.613334,173.304002 268.416,172.824 C268.218666,172.343998 268.12,171.821336 268.12,171.256 C268.12,170.690664 268.218666,170.168002 268.416,169.688 C268.613334,169.207998 268.887998,168.792002 269.24,168.44 C269.592002,168.087998 270.013331,167.813334 270.504,167.616 C270.994669,167.418666 271.527997,167.32 272.104,167.32 C272.69067,167.32 273.229331,167.418666 273.72,167.616 C274.210669,167.813334 274.631998,168.087998 274.984,168.44 C275.336002,168.792002 275.610666,169.207998 275.808,169.688 C276.005334,170.168002 276.104,170.690664 276.104,171.256 L276.104,171.256 Z M274.952,171.256 C274.952,170.839998 274.885334,170.448002 274.752,170.08 C274.618666,169.711998 274.429335,169.392001 274.184,169.12 C273.938665,168.847999 273.640002,168.632001 273.288,168.472 C272.935998,168.311999 272.541336,168.232 272.104,168.232 C271.666664,168.232 271.274668,168.311999 270.928,168.472 C270.581332,168.632001 270.285335,168.847999 270.04,169.12 C269.794665,169.392001 269.605334,169.711998 269.472,170.08 C269.338666,170.448002 269.272,170.839998 269.272,171.256 C269.272,171.672002 269.338666,172.063998 269.472,172.432 C269.605334,172.800002 269.794665,173.119999 270.04,173.392 C270.285335,173.664001 270.581332,173.877333 270.928,174.032 C271.274668,174.186667 271.666664,174.264 272.104,174.264 C272.541336,174.264 272.935998,174.186667 273.288,174.032 C273.640002,173.877333 273.938665,173.664001 274.184,173.392 C274.429335,173.119999 274.618666,172.800002 274.752,172.432 C274.885334,172.063998 274.952,171.672002 274.952,171.256 L274.952,171.256 Z M279.512,168.792 C279.725334,168.354664 280.053331,168.000001 280.496,167.728 C280.938669,167.455999 281.431997,167.32 281.976,167.32 C282.178668,167.32 282.389332,167.341333 282.608,167.384 C282.826668,167.426667 283.039999,167.509333 283.248,167.632 C283.456001,167.754667 283.647999,167.917332 283.824,168.12 C284.000001,168.322668 284.151999,168.583998 284.28,168.904 C284.536001,168.391997 284.885331,168.000001 285.328,167.728 C285.770669,167.455999 286.295997,167.32 286.904,167.32 C287.853338,167.32 288.565331,167.602664 289.04,168.168 C289.514669,168.733336 289.752,169.479995 289.752,170.408 L289.752,175 L288.664,175 L288.664,170.856 C288.664,170.066663 288.517335,169.432002 288.224,168.952 C287.930665,168.471998 287.432004,168.232 286.728,168.232 C286.333331,168.232 286.000001,168.311999 285.728,168.472 C285.455999,168.632001 285.237334,168.842665 285.072,169.104 C284.906666,169.365335 284.786667,169.661332 284.712,169.992 C284.637333,170.322668 284.6,170.663998 284.6,171.016 L284.6,175 L283.512,175 L283.512,170.632 C283.512,170.269332 283.485334,169.938668 283.432,169.64 C283.378666,169.341332 283.285334,169.088001 283.152,168.88 C283.018666,168.671999 282.834668,168.512001 282.6,168.4 C282.365332,168.287999 282.066668,168.232 281.704,168.232 C281.447999,168.232 281.189335,168.290666 280.928,168.408 C280.666665,168.525334 280.432001,168.703999 280.224,168.944 C280.015999,169.184001 279.848001,169.487998 279.72,169.856 C279.591999,170.224002 279.528,170.658664 279.528,171.16 L279.528,175 L278.44,175 L278.44,169.16 C278.44,168.957332 278.434667,168.696002 278.424,168.376 C278.413333,168.055998 278.397333,167.768001 278.376,167.512 L279.416,167.512 C279.437333,167.714668 279.453333,167.938665 279.464,168.184 C279.474667,168.429335 279.48,168.631999 279.48,168.792 L279.512,168.792 Z M301.288,170.168 C301.288,169.51733 301.117335,169.032002 300.776,168.712 C300.434665,168.391998 299.93867,168.232 299.288,168.232 C298.839998,168.232 298.424002,168.311999 298.04,168.472 C297.655998,168.632001 297.330668,168.845332 297.064,169.112 L296.456,168.392 C296.765335,168.082665 297.173331,167.826668 297.68,167.624 C298.186669,167.421332 298.759997,167.32 299.4,167.32 C299.805335,167.32 300.183998,167.375999 300.536,167.488 C300.888002,167.600001 301.197332,167.767999 301.464,167.992 C301.730668,168.216001 301.938666,168.498665 302.088,168.84 C302.237334,169.181335 302.312,169.581331 302.312,170.04 L302.312,173.32 C302.312,173.608001 302.322667,173.906665 302.344,174.216 C302.365333,174.525335 302.397333,174.786666 302.44,175 L301.464,175 C301.432,174.818666 301.405333,174.621334 301.384,174.408 C301.362667,174.194666 301.352,173.986668 301.352,173.784 L301.32,173.784 C300.978665,174.285336 300.592002,174.645332 300.16,174.864 C299.727998,175.082668 299.208003,175.192 298.6,175.192 C298.311999,175.192 298.016002,175.152 297.712,175.072 C297.407998,174.992 297.130668,174.861334 296.88,174.68 C296.629332,174.498666 296.421334,174.264001 296.256,173.976 C296.090666,173.687999 296.008,173.336002 296.008,172.92 C296.008,172.343997 296.154665,171.888002 296.448,171.552 C296.741335,171.215998 297.133331,170.965334 297.624,170.8 C298.114669,170.634666 298.67733,170.528 299.312,170.48 C299.94667,170.432 300.60533,170.408 301.288,170.408 L301.288,170.168 Z M300.968,171.256 C300.519998,171.256 300.069336,171.274666 299.616,171.312 C299.162664,171.349334 298.752002,171.423999 298.384,171.536 C298.015998,171.648001 297.714668,171.810666 297.48,172.024 C297.245332,172.237334 297.128,172.519998 297.128,172.872 C297.128,173.138668 297.178666,173.362666 297.28,173.544 C297.381334,173.725334 297.517332,173.871999 297.688,173.984 C297.858668,174.096001 298.047999,174.176 298.256,174.224 C298.464001,174.272 298.674666,174.296 298.888,174.296 C299.272002,174.296 299.613332,174.229334 299.912,174.096 C300.210668,173.962666 300.461332,173.781334 300.664,173.552 C300.866668,173.322666 301.021333,173.058668 301.128,172.76 C301.234667,172.461332 301.288,172.146668 301.288,171.816 L301.288,171.256 L300.968,171.256 Z M306.088,167.512 C306.109333,167.714668 306.125333,167.938665 306.136,168.184 C306.146667,168.429335 306.152,168.631999 306.152,168.792 L306.184,168.792 C306.397334,168.354664 306.743998,168.000001 307.224,167.728 C307.704002,167.455999 308.210664,167.32 308.744,167.32 C309.693338,167.32 310.405331,167.602664 310.88,168.168 C311.354669,168.733336 311.592,169.479995 311.592,170.408 L311.592,175 L310.504,175 L310.504,170.856 C310.504,170.461331 310.472,170.104002 310.408,169.784 C310.344,169.463998 310.234667,169.189334 310.08,168.96 C309.925333,168.730666 309.717335,168.552001 309.456,168.424 C309.194665,168.295999 308.866669,168.232 308.472,168.232 C308.183999,168.232 307.904001,168.290666 307.632,168.408 C307.359999,168.525334 307.117334,168.703999 306.904,168.944 C306.690666,169.184001 306.520001,169.487998 306.392,169.856 C306.263999,170.224002 306.2,170.658664 306.2,171.16 L306.2,175 L305.112,175 L305.112,169.16 C305.112,168.957332 305.106667,168.696002 305.096,168.376 C305.085333,168.055998 305.069333,167.768001 305.048,167.512 L306.088,167.512 Z M316.984,173.832 L317.016,173.832 L319.336,167.512 L320.52,167.512 L316.792,176.936 C316.567999,177.512003 316.282668,177.973332 315.936,178.32 C315.589332,178.666668 315.09067,178.84 314.44,178.84 C314.109332,178.84 313.784002,178.808 313.464,178.744 L313.576,177.752 C313.832001,177.837334 314.098665,177.88 314.376,177.88 C314.749335,177.88 315.042666,177.765334 315.256,177.536 C315.469334,177.306666 315.655999,176.978669 315.816,176.552 L316.424,174.984 L313.224,167.512 L314.44,167.512 L316.984,173.832 Z M327.336,173.736 L327.336,175 L326.248,175 L326.248,162.904 L327.336,162.904 L327.336,168.808 L327.368,168.808 C327.688002,168.317331 328.103997,167.946668 328.616,167.696 C329.128003,167.445332 329.655997,167.32 330.2,167.32 C330.78667,167.32 331.317331,167.421332 331.792,167.624 C332.266669,167.826668 332.671998,168.103998 333.008,168.456 C333.344002,168.808002 333.605332,169.223998 333.792,169.704 C333.978668,170.184002 334.072,170.701331 334.072,171.256 C334.072,171.810669 333.978668,172.327998 333.792,172.808 C333.605332,173.288002 333.344002,173.703998 333.008,174.056 C332.671998,174.408002 332.266669,174.685332 331.792,174.888 C331.317331,175.090668 330.78667,175.192 330.2,175.192 C329.655997,175.192 329.128003,175.069335 328.616,174.824 C328.103997,174.578665 327.688002,174.216002 327.368,173.736 L327.336,173.736 Z M332.92,171.256 C332.92,170.839998 332.856001,170.448002 332.728,170.08 C332.599999,169.711998 332.416001,169.392001 332.176,169.12 C331.935999,168.847999 331.640002,168.632001 331.288,168.472 C330.935998,168.311999 330.536002,168.232 330.088,168.232 C329.671998,168.232 329.288002,168.309333 328.936,168.464 C328.583998,168.618667 328.280001,168.831999 328.024,169.104 C327.767999,169.376001 327.568001,169.695998 327.424,170.064 C327.279999,170.432002 327.208,170.829331 327.208,171.256 C327.208,171.682669 327.279999,172.079998 327.424,172.448 C327.568001,172.816002 327.767999,173.133332 328.024,173.4 C328.280001,173.666668 328.583998,173.877333 328.936,174.032 C329.288002,174.186667 329.671998,174.264 330.088,174.264 C330.536002,174.264 330.935998,174.186667 331.288,174.032 C331.640002,173.877333 331.935999,173.664001 332.176,173.392 C332.416001,173.119999 332.599999,172.800002 332.728,172.432 C332.856001,172.063998 332.92,171.672002 332.92,171.256 L332.92,171.256 Z M336.408,169.16 C336.408,168.957332 336.402667,168.696002 336.392,168.376 C336.381333,168.055998 336.365333,167.768001 336.344,167.512 L337.384,167.512 C337.405333,167.714668 337.421333,167.938665 337.432,168.184 C337.442667,168.429335 337.448,168.631999 337.448,168.792 L337.48,168.792 C337.693334,168.354664 338.013331,168.000001 338.44,167.728 C338.866669,167.455999 339.346664,167.32 339.88,167.32 C340.018667,167.32 340.143999,167.325333 340.256,167.336 C340.368001,167.346667 340.482666,167.368 340.6,167.4 L340.456,168.424 C340.392,168.402667 340.285334,168.381333 340.136,168.36 C339.986666,168.338667 339.837334,168.328 339.688,168.328 C339.399999,168.328 339.122668,168.381333 338.856,168.488 C338.589332,168.594667 338.357334,168.762666 338.16,168.992 C337.962666,169.221334 337.802667,169.514665 337.68,169.872 C337.557333,170.229335 337.496,170.658664 337.496,171.16 L337.496,175 L336.408,175 L336.408,169.16 Z M349.32,171.256 C349.32,171.821336 349.221334,172.343998 349.024,172.824 C348.826666,173.304002 348.552002,173.719998 348.2,174.072 C347.847998,174.424002 347.426669,174.698666 346.936,174.896 C346.445331,175.093334 345.90667,175.192 345.32,175.192 C344.743997,175.192 344.210669,175.093334 343.72,174.896 C343.229331,174.698666 342.808002,174.424002 342.456,174.072 C342.103998,173.719998 341.829334,173.304002 341.632,172.824 C341.434666,172.343998 341.336,171.821336 341.336,171.256 C341.336,170.690664 341.434666,170.168002 341.632,169.688 C341.829334,169.207998 342.103998,168.792002 342.456,168.44 C342.808002,168.087998 343.229331,167.813334 343.72,167.616 C344.210669,167.418666 344.743997,167.32 345.32,167.32 C345.90667,167.32 346.445331,167.418666 346.936,167.616 C347.426669,167.813334 347.847998,168.087998 348.2,168.44 C348.552002,168.792002 348.826666,169.207998 349.024,169.688 C349.221334,170.168002 349.32,170.690664 349.32,171.256 L349.32,171.256 Z M348.168,171.256 C348.168,170.839998 348.101334,170.448002 347.968,170.08 C347.834666,169.711998 347.645335,169.392001 347.4,169.12 C347.154665,168.847999 346.856002,168.632001 346.504,168.472 C346.151998,168.311999 345.757336,168.232 345.32,168.232 C344.882664,168.232 344.490668,168.311999 344.144,168.472 C343.797332,168.632001 343.501335,168.847999 343.256,169.12 C343.010665,169.392001 342.821334,169.711998 342.688,170.08 C342.554666,170.448002 342.488,170.839998 342.488,171.256 C342.488,171.672002 342.554666,172.063998 342.688,172.432 C342.821334,172.800002 343.010665,173.119999 343.256,173.392 C343.501335,173.664001 343.797332,173.877333 344.144,174.032 C344.490668,174.186667 344.882664,174.264 345.32,174.264 C345.757336,174.264 346.151998,174.186667 346.504,174.032 C346.856002,173.877333 347.154665,173.664001 347.4,173.392 C347.645335,173.119999 347.834666,172.800002 347.968,172.432 C348.101334,172.063998 348.168,171.672002 348.168,171.256 L348.168,171.256 Z M352.776,170.888 L352.824,170.888 L356.28,167.512 L357.848,167.512 L354.072,170.936 L358.232,175 L356.632,175 L352.824,171.064 L352.776,171.064 L352.776,175 L351.688,175 L351.688,162.904 L352.776,162.904 L352.776,170.888 Z M365.24,170.68 C365.208,169.975996 364.981335,169.392002 364.56,168.928 C364.138665,168.463998 363.538671,168.232 362.76,168.232 C362.397332,168.232 362.061335,168.298666 361.752,168.432 C361.442665,168.565334 361.170668,168.746666 360.936,168.976 C360.701332,169.205334 360.514667,169.466665 360.376,169.76 C360.237333,170.053335 360.157333,170.359998 360.136,170.68 L365.24,170.68 Z M366.344,171.032 L366.344,171.272 C366.344,171.357334 366.338667,171.448 366.328,171.544 L360.12,171.544 C360.130667,171.917335 360.205333,172.269332 360.344,172.6 C360.482667,172.930668 360.674665,173.218665 360.92,173.464 C361.165335,173.709335 361.453332,173.903999 361.784,174.048 C362.114668,174.192001 362.471998,174.264 362.856,174.264 C363.421336,174.264 363.909331,174.133335 364.32,173.872 C364.730669,173.610665 365.042666,173.309335 365.256,172.968 L366.072,173.608 C365.623998,174.173336 365.130669,174.578665 364.592,174.824 C364.053331,175.069335 363.47467,175.192 362.856,175.192 C362.301331,175.192 361.786669,175.093334 361.312,174.896 C360.837331,174.698666 360.429335,174.424002 360.088,174.072 C359.746665,173.719998 359.477334,173.304002 359.28,172.824 C359.082666,172.343998 358.984,171.821336 358.984,171.256 C358.984,170.690664 359.079999,170.168002 359.272,169.688 C359.464001,169.207998 359.730665,168.792002 360.072,168.44 C360.413335,168.087998 360.813331,167.813334 361.272,167.616 C361.730669,167.418666 362.226664,167.32 362.76,167.32 C363.34667,167.32 363.863998,167.418666 364.312,167.616 C364.760002,167.813334 365.133332,168.079998 365.432,168.416 C365.730668,168.752002 365.957333,169.143998 366.112,169.592 C366.266667,170.040002 366.344,170.519997 366.344,171.032 L366.344,171.032 Z M368.68,169.16 C368.68,168.957332 368.674667,168.696002 368.664,168.376 C368.653333,168.055998 368.637333,167.768001 368.616,167.512 L369.656,167.512 C369.677333,167.714668 369.693333,167.938665 369.704,168.184 C369.714667,168.429335 369.72,168.631999 369.72,168.792 L369.752,168.792 C369.965334,168.354664 370.285331,168.000001 370.712,167.728 C371.138669,167.455999 371.618664,167.32 372.152,167.32 C372.290667,167.32 372.415999,167.325333 372.528,167.336 C372.640001,167.346667 372.754666,167.368 372.872,167.4 L372.728,168.424 C372.664,168.402667 372.557334,168.381333 372.408,168.36 C372.258666,168.338667 372.109334,168.328 371.96,168.328 C371.671999,168.328 371.394668,168.381333 371.128,168.488 C370.861332,168.594667 370.629334,168.762666 370.432,168.992 C370.234666,169.221334 370.074667,169.514665 369.952,169.872 C369.829333,170.229335 369.768,170.658664 369.768,171.16 L369.768,175 L368.68,175 L368.68,169.16 Z" id="A-lib-to-consume-mes" fill="#000000" sketch:type="MSShapeGroup"></path>
            <path d="M143.535156,132.569336 C142.97656,131.817379 141.781503,131.441406 139.949951,131.441406 C138.118399,131.441406 136.853519,132.053705 136.155273,133.27832 C135.918944,133.697268 135.800781,134.212888 135.800781,134.825195 C135.800781,135.953131 136.305659,136.98437 137.31543,137.918945 C137.981449,138.541995 138.902582,139.181149 140.078857,139.836426 C141.255133,140.491702 142.24609,141.077146 143.051758,141.592773 C146.091812,143.526377 147.611816,145.642567 147.611816,147.941406 C147.611816,149.982432 146.862556,151.556147 145.364014,152.662598 C143.865471,153.769049 141.926526,154.322266 139.547119,154.322266 C137.167713,154.322266 135.260993,153.8523 133.826904,152.912354 C132.392815,151.972407 131.675781,150.892828 131.675781,149.673584 C131.675781,148.45434 132.164546,147.629885 133.14209,147.200195 C133.442873,147.060546 133.770506,146.990723 134.125,146.990723 C134.801761,146.990723 135.357664,147.216306 135.792725,147.66748 C136.227785,148.118655 136.445312,148.687985 136.445312,149.375488 C136.445312,150.062992 136.133792,150.648435 135.510742,151.131836 C136.348637,151.969731 137.737051,152.388672 139.676025,152.388672 C141.615,152.388672 142.944332,151.733405 143.664062,150.422852 C143.921876,149.971677 144.050781,149.445316 144.050781,148.84375 C144.050781,147.801753 143.513677,146.834965 142.439453,145.943359 C141.880857,145.481443 140.938239,144.882572 139.611572,144.146729 C138.284905,143.410885 137.240238,142.795901 136.477539,142.301758 C133.673814,140.497061 132.271973,138.370129 132.271973,135.920898 C132.271973,134.00878 132.994378,132.46192 134.439209,131.280273 C135.88404,130.098627 137.672597,129.507812 139.804932,129.507812 C141.937267,129.507812 143.688226,129.964351 145.057861,130.877441 C146.427497,131.790532 147.112305,132.902337 147.112305,134.212891 C147.112305,134.921879 146.894778,135.515378 146.459717,135.993408 C146.024656,136.471438 145.474124,136.710449 144.808105,136.710449 C143.787593,136.710449 143.078615,136.264653 142.681152,135.373047 C142.562988,135.104491 142.503906,134.819826 142.503906,134.519043 C142.503906,133.69189 142.847653,133.041995 143.535156,132.569336 L143.535156,132.569336 Z M151.092285,133.358887 C150.845214,132.682126 150.552492,132.220216 150.214111,131.973145 C149.875731,131.726073 149.271489,131.602539 148.401367,131.602539 L148.401367,129.830078 L157.827637,129.830078 L157.827637,131.602539 C156.409661,131.602539 155.57715,131.699218 155.330078,131.892578 C155.083007,132.085938 154.964844,132.295409 154.975586,132.520996 C154.986328,132.746583 155.04541,133.025877 155.152832,133.358887 L159.696777,148.263672 L165.529785,129.830078 L167.640625,129.830078 L173.586426,148.199219 L178.017578,133.358887 C178.071289,133.165526 178.098145,132.937257 178.098145,132.674072 C178.098145,132.410887 177.902102,132.166505 177.51001,131.940918 C177.117918,131.715331 176.298834,131.602539 175.052734,131.602539 L175.052734,129.830078 L183.383301,129.830078 L183.383301,131.602539 C182.577633,131.602539 181.959963,131.73413 181.530273,131.997314 C181.100584,132.260499 180.783692,132.714352 180.57959,133.358887 L173.973145,154 L171.878418,154 L165.916504,136.355957 L160.180176,154 L158.294922,154 L151.092285,133.358887 Z M182.480957,152.227539 C183.372563,152.227539 184.046629,152.090578 184.503174,151.81665 C184.959719,151.542723 185.311522,151.094241 185.558594,150.471191 L194.259766,129.830078 L197.015137,129.830078 L204.975098,150.471191 C205.265138,151.158695 205.587401,151.62329 205.941895,151.86499 C206.296388,152.106691 206.989253,152.227539 208.020508,152.227539 L208.020508,154 L198.078613,154 L198.078613,152.227539 C199.496589,152.227539 200.337157,152.13086 200.600342,151.9375 C200.863527,151.74414 200.987061,151.534669 200.970947,151.309082 C200.954834,151.083495 200.882325,150.804201 200.753418,150.471191 L199.303223,146.426758 L189.941406,146.426758 L188.281738,150.471191 C188.034667,151.115726 188.109861,151.569579 188.507324,151.832764 C188.904787,152.095949 189.833977,152.227539 191.294922,152.227539 L191.294922,154 L182.480957,154 L182.480957,152.227539 Z M198.674805,144.654297 L194.936523,134.212891 L190.666504,144.654297 L198.674805,144.654297 Z M228.85498,152.001953 C229.692875,152.001953 230.111816,151.035166 230.111816,149.101562 L231.658691,149.101562 C231.776856,149.488283 231.835938,149.826659 231.835938,150.116699 C231.835938,150.40674 231.830566,150.720946 231.819824,151.059326 C231.809082,151.397707 231.680177,151.840818 231.433105,152.388672 C230.842282,153.677741 229.735848,154.322266 228.11377,154.322266 C226.491691,154.322266 225.350345,153.914067 224.689697,153.097656 C224.029049,152.281246 223.559083,151.45142 223.279785,150.608154 C223.000487,149.764888 222.774903,149.02637 222.603027,148.392578 C222.108884,146.663077 221.711427,145.535159 221.410645,145.008789 C220.86279,143.999018 220.116216,143.494141 219.170898,143.494141 L215.625977,143.494141 L215.625977,149.665527 C215.625977,150.213382 215.652832,150.653807 215.706543,150.986816 C215.760254,151.319826 215.950926,151.609862 216.278564,151.856934 C216.606203,152.104005 217.607902,152.227539 219.283691,152.227539 L219.283691,154 L209.30957,154 L209.30957,152.227539 C210.437506,152.227539 211.141112,152.128175 211.42041,151.929443 C211.699708,151.730712 211.866211,151.518556 211.919922,151.292969 C211.973633,151.067382 212.000488,150.793459 212.000488,150.471191 L212.000488,133.358887 C212.000488,132.660641 211.882325,132.225587 211.645996,132.053711 C211.216306,131.752928 210.432135,131.602539 209.293457,131.602539 L209.293457,129.830078 L219.187012,129.830078 C224.472194,129.830078 227.410153,131.462874 228.000977,134.728516 C228.097657,135.265628 228.145996,135.894039 228.145996,136.61377 C228.145996,138.160652 227.659917,139.479243 226.687744,140.56958 C225.715571,141.659918 224.39161,142.446775 222.71582,142.930176 C224.166023,143.370608 225.245602,144.530752 225.95459,146.410645 C226.190919,147.022952 226.448729,147.812495 226.728027,148.779297 C227.007326,149.746099 227.232909,150.412108 227.404785,150.777344 C227.780764,151.593754 228.264157,152.001953 228.85498,152.001953 L228.85498,152.001953 Z M219.219238,141.882812 C221.056162,141.882812 222.355953,141.439702 223.118652,140.553467 C223.881351,139.667232 224.262695,138.388924 224.262695,136.718506 C224.262695,135.048087 223.816899,133.777836 222.925293,132.907715 C222.033687,132.037593 220.470714,131.602539 218.236328,131.602539 L215.625977,131.602539 L215.625977,141.882812 L219.219238,141.882812 Z M252.62207,152.001953 C253.459965,152.001953 253.878906,151.035166 253.878906,149.101562 L255.425781,149.101562 C255.543946,149.488283 255.603027,149.826659 255.603027,150.116699 C255.603027,150.40674 255.597656,150.720946 255.586914,151.059326 C255.576172,151.397707 255.447267,151.840818 255.200195,152.388672 C254.609372,153.677741 253.502938,154.322266 251.880859,154.322266 C250.258781,154.322266 249.117435,153.914067 248.456787,153.097656 C247.796139,152.281246 247.326173,151.45142 247.046875,150.608154 C246.767577,149.764888 246.541993,149.02637 246.370117,148.392578 C245.875974,146.663077 245.478517,145.535159 245.177734,145.008789 C244.62988,143.999018 243.883306,143.494141 242.937988,143.494141 L239.393066,143.494141 L239.393066,149.665527 C239.393066,150.213382 239.419922,150.653807 239.473633,150.986816 C239.527344,151.319826 239.718016,151.609862 240.045654,151.856934 C240.373293,152.104005 241.374992,152.227539 243.050781,152.227539 L243.050781,154 L233.07666,154 L233.07666,152.227539 C234.204595,152.227539 234.908202,152.128175 235.1875,151.929443 C235.466798,151.730712 235.633301,151.518556 235.687012,151.292969 C235.740723,151.067382 235.767578,150.793459 235.767578,150.471191 L235.767578,133.358887 C235.767578,132.660641 235.649415,132.225587 235.413086,132.053711 C234.983396,131.752928 234.199224,131.602539 233.060547,131.602539 L233.060547,129.830078 L242.954102,129.830078 C248.239284,129.830078 251.177243,131.462874 251.768066,134.728516 C251.864747,135.265628 251.913086,135.894039 251.913086,136.61377 C251.913086,138.160652 251.427007,139.479243 250.454834,140.56958 C249.482661,141.659918 248.1587,142.446775 246.48291,142.930176 C247.933113,143.370608 249.012692,144.530752 249.72168,146.410645 C249.958009,147.022952 250.215819,147.812495 250.495117,148.779297 C250.774415,149.746099 250.999999,150.412108 251.171875,150.777344 C251.547853,151.593754 252.031247,152.001953 252.62207,152.001953 L252.62207,152.001953 Z M242.986328,141.882812 C244.823251,141.882812 246.123043,141.439702 246.885742,140.553467 C247.648441,139.667232 248.029785,138.388924 248.029785,136.718506 C248.029785,135.048087 247.583989,133.777836 246.692383,132.907715 C245.800777,132.037593 244.237804,131.602539 242.003418,131.602539 L239.393066,131.602539 L239.393066,141.882812 L242.986328,141.882812 Z M256.924316,141.915039 C256.924316,139.874013 257.235837,138.061287 257.858887,136.476807 C258.481937,134.892326 259.319819,133.584478 260.372559,132.553223 C262.445811,130.522939 265.093734,129.507812 268.316406,129.507812 C271.539079,129.507812 274.187001,130.506826 276.260254,132.504883 C278.559094,134.707042 279.708496,137.816874 279.708496,141.834473 C279.708496,145.852071 278.653087,148.937733 276.542236,151.091553 C274.431386,153.245372 271.68947,154.322266 268.316406,154.322266 C264.954085,154.322266 262.214854,153.231944 260.098633,151.05127 C257.982411,148.870595 256.924316,145.825215 256.924316,141.915039 L256.924316,141.915039 Z M268.364746,152.227539 C270.244638,152.227539 271.823724,151.529304 273.102051,150.132812 C274.713387,148.371085 275.519043,145.690936 275.519043,142.092285 C275.519043,138.493634 274.83155,135.845712 273.456543,134.148438 C272.081536,132.451163 270.352061,131.602539 268.268066,131.602539 C266.194814,131.602539 264.484138,132.448478 263.135986,134.140381 C261.787835,135.832284 261.11377,138.3701 261.11377,141.753906 C261.11377,146.620142 262.445787,149.826652 265.109863,151.373535 C266.087407,151.942874 267.172357,152.227539 268.364746,152.227539 L268.364746,152.227539 Z M286.878906,152.227539 C288.09278,152.227539 288.898436,152.128175 289.295898,151.929443 C289.693361,151.730712 289.951171,151.518556 290.069336,151.292969 C290.187501,151.067382 290.246582,150.793459 290.246582,150.471191 L290.246582,131.699219 L286.943359,131.699219 C285.17089,131.699219 284.155763,132.639151 283.897949,134.519043 L283.430664,137.790039 L281.094238,137.773926 L281.803223,129.830078 L302.31543,129.830078 L303.024414,137.773926 L300.687988,137.790039 L300.220703,134.519043 C300.102538,133.648921 299.871584,133.031252 299.527832,132.666016 C298.904782,132.021481 298.12061,131.699219 297.175293,131.699219 L293.87207,131.699219 L293.87207,150.471191 C293.87207,151.147953 294.094968,151.609862 294.540771,151.856934 C294.986574,152.104005 295.886224,152.227539 297.239746,152.227539 L297.239746,154 L286.878906,154 L286.878906,152.227539 Z" id="SWARROT" fill="#000000" sketch:type="MSShapeGroup"></path>
            <g id="Swarrot" sketch:type="MSLayerGroup" transform="translate(135.000000, 23.000000)">
                <path d="M164.4,97 L0,97 C0,95.4220436 3.76176918,94.1428571 8.39920319,94.1428571 L24.1602057,94.1428571 L19.7997805,86.9165889 L29.1230804,94.1428571 L32.7,81 L35.5617004,94.1428571 L45.6002195,86.9165889 L41.2397943,94.1428571 L126.160206,94.1428571 L121.799781,86.9165889 L131.234344,94.1428571 L134.7,81 L136.509723,94.1428571 L147.600219,86.9165889 L143.239794,94.1428571 L156.006535,94.1428571 C160.642118,94.1428571 164.4,97 164.4,97 Z" id="path-10" fill="#64B35D" sketch:type="MSShapeGroup"></path>
                <path d="M57.4,30.6 C57.4,34.0847698 58.5883181,37.2919931 60.5818393,39.8385547 C55.5084833,42.2438458 52,47.4121978 52,53.4 C52,61.6842712 58.7157287,68.4 67,68.4 C71.5622977,68.4 75.6488715,66.3631842 78.4,63.149274 L78.4,71.6 L86.8,71.6 L86.8,64.3982717 C89.4764773,66.8816446 93.0609232,68.4 97,68.4 C105.284271,68.4 112,61.6842712 112,53.4 C112,47.751241 108.877585,42.8317611 104.264552,40.2733571 C106.470368,37.6617555 107.8,34.2861538 107.8,30.6 C107.8,24.2076849 103.801465,18.7492776 98.1691252,16.5895077 C98.189606,16.2623043 98.2,15.932366 98.2,15.6 C98.2,6.9843579 91.2156421,0 82.6,0 C73.9843579,0 67,6.9843579 67,15.6 C67,15.932366 67.010394,16.2623043 67.0308748,16.5895077 C61.3985348,18.7492776 57.4,24.2076849 57.4,30.6 Z" id="path-6" fill="#317109" sketch:type="MSShapeGroup"></path>
                <path d="M67.2827992,75.8936171 C62.1464669,75.8936171 58,79.9468689 58,84.9468085 L58.0000004,94.1431274 L106.144787,94.1431274 L106.144786,84.9468085 C106.144786,79.9457696 101.988736,75.8936171 96.8619876,75.8936171 L96.0310386,75.8936171 C95.5522976,73.1207571 93.074509,71 90.0898018,71 L74.054985,71 C71.0656093,71 68.590674,73.1162806 68.1133361,75.8936171 L67.2827992,75.8936171 Z M71.5407213,86.9042553 C71.5407213,85.9583208 72.2982706,85.1914894 73.2548678,85.1914894 L93.39746,85.1914894 C94.344157,85.1914894 95.1116065,85.9517259 95.1116065,86.9042553 C95.1116065,87.8501899 94.3540572,88.6170213 93.39746,88.6170213 L73.2548678,88.6170213 C72.3081708,88.6170213 71.5407213,87.8567847 71.5407213,86.9042553 Z" id="path-3-path" fill="#EA7617" sketch:type="MSShapeGroup"></path>
            </g>
        </g>
    </g>
</svg>