<?xml version="1.0" encoding="UTF-8" standalone="no"?>
<svg
   xmlns:sketch="http://www.bohemiancoding.com/sketch/ns"
   xmlns:dc="http://purl.org/dc/elements/1.1/"
   xmlns:cc="http://creativecommons.org/ns#"
   xmlns:rdf="http://www.w3.org/1999/02/22-rdf-syntax-ns#"
   xmlns:svg="http://www.w3.org/2000/svg"
   xmlns="http://www.w3.org/2000/svg"
   xmlns:sodipodi="http://sodipodi.sourceforge.net/DTD/sodipodi-0.dtd"
   xmlns:inkscape="http://www.inkscape.org/namespaces/inkscape"
   width="140"
   height="140"
   viewBox="0 0 140 140"
   version="1.1"
   id="svg2"
   inkscape:version="0.91 r13725"
   sodipodi:docname="logo-no-text_438x201.svg">
  <metadata
     id="metadata18">
    <rdf:RDF>
      <cc:Work
         rdf:about="">
        <dc:format>image/svg+xml</dc:format>
        <dc:type
           rdf:resource="http://purl.org/dc/dcmitype/StillImage" />
        <dc:title>Logo Swarrot no text</dc:title>
      </cc:Work>
    </rdf:RDF>
  </metadata>
  <sodipodi:namedview
     pagecolor="#ffffff"
     bordercolor="#666666"
     borderopacity="1"
     objecttolerance="10"
     gridtolerance="10"
     guidetolerance="10"
     inkscape:pageopacity="0"
     inkscape:pageshadow="2"
     inkscape:window-width="1366"
     inkscape:window-height="704"
     id="namedview16"
     showgrid="false"
     inkscape:zoom="2.0922612"
     inkscape:cx="217.59387"
     inkscape:cy="103.01415"
     inkscape:window-x="0"
     inkscape:window-y="27"
     inkscape:window-maximized="1"
     inkscape:current-layer="Logo-Swarrot-no-text" />
  <!-- Generator: Sketch 3.4.2 (15857) - http://www.bohemiancoding.com/sketch -->
  <title
     id="title4">Logo Swarrot no text</title>
  <desc
     id="desc6">Created with Sketch.</desc>
  <defs
     id="defs8" />
  <g
     style="fill:none;fill-rule:evenodd;stroke:none;stroke-width:1"
     sketch:type="MSArtboardGroup"
     id="Logo-Swarrot-no-text"
     transform="translate(0,-61)">
    <path
       d="m 138.01445,177.15506 -136.2008351,0 c 0,-1.57796 3.116522,-2.85714 6.958505,-2.85714 l 13.0575611,0 -3.612495,-7.22627 7.724095,7.22627 2.963379,-13.14286 2.370839,13.14286 8.316636,-7.22627 -3.612496,7.22627 70.354211,0 -3.6125,-7.22627 7.81627,7.22627 2.8712,-13.14286 1.49931,13.14286 9.18817,-7.22627 -3.6125,7.22627 10.5769,0 c 3.84045,0 6.95375,2.85714 6.95375,2.85714 z"
       id="path-10"
       sketch:type="MSShapeGroup"
       inkscape:connector-curvature="0"
       style="fill:#000000" />
    <path
       d="m 47.01446,110.75506 c 0,3.48477 1.18832,6.69199 3.18184,9.23856 -5.07336,2.40529 -8.58184,7.57364 -8.58184,13.56144 0,8.28427 6.71573,15 15,15 4.5623,0 8.64887,-2.03682 11.4,-5.25073 l 0,8.45073 8.399995,0 0,-7.20173 c 2.67648,2.48338 6.26092,4.00173 10.200001,4.00173 8.28427,0 14.999994,-6.71573 14.999994,-15 0,-5.64876 -3.122414,-10.56824 -7.735444,-13.12664 2.20582,-2.6116 3.53545,-5.98721 3.53545,-9.67336 0,-6.39232 -3.99854,-11.850723 -9.63088,-14.010493 0.0205,-0.327204 0.0309,-0.657142 0.0309,-0.989508 0,-8.615642 -6.984361,-15.6 -15.600001,-15.6 -8.615635,0 -15.599995,6.984358 -15.599995,15.6 0,0.332366 0.0104,0.662304 0.0309,0.989508 -5.63237,2.15977 -9.6309,7.618173 -9.6309,14.010493 z"
       id="path-6"
       sketch:type="MSShapeGroup"
       inkscape:connector-curvature="0"
       style="fill:#666666" />
    <path
       d="m 56.89726,156.04868 c -5.13633,0 -9.2828,4.05325 -9.2828,9.05319 l 0,9.19632 48.144786,0 0,-9.19632 c 0,-5.00104 -4.15605,-9.05319 -9.2828,-9.05319 l -0.830951,0 c -0.47874,-2.77286 -2.95653,-4.89362 -5.94124,-4.89362 l -16.034815,0 c -2.98937,0 -5.46431,2.11628 -5.94164,4.89362 l -0.83054,0 z m 4.25792,11.01063 c 0,-0.94593 0.75755,-1.71276 1.71415,-1.71276 l 20.142585,0 c 0.9467,0 1.71415,0.76024 1.71415,1.71276 0,0.94594 -0.75755,1.71277 -1.71415,1.71277 l -20.142585,0 c -0.9467,0 -1.71415,-0.76024 -1.71415,-1.71277 z"
       id="path-3-path"
       sketch:type="MSShapeGroup"
       inkscape:connector-curvature="0"
       style="fill:#4d4d4d" />
  </g>
</svg>
