<?xml version="1.0" encoding="UTF-8" standalone="no"?>
<svg width="438px" height="201px" viewBox="0 0 438 201" version="1.1" xmlns="http://www.w3.org/2000/svg" xmlns:xlink="http://www.w3.org/1999/xlink" xmlns:sketch="http://www.bohemiancoding.com/sketch/ns">
    <!-- Generator: Sketch 3.4.2 (15857) - http://www.bohemiancoding.com/sketch -->
    <title>Logo Swarrot no text</title>
    <desc>Created with Sketch.</desc>
    <defs></defs>
    <g id="Page-1" stroke="none" stroke-width="1" fill="none" fill-rule="evenodd" sketch:type="MSPage">
        <g id="Logo-Swarrot-no-text" sketch:type="MSArtboardGroup">
            <g id="Swarrot" sketch:type="MSLayerGroup" transform="translate(135.000000, 45.000000)">
                <path d="M164.4,97 L0,97 C0,95.4220436 3.76176918,94.1428571 8.39920319,94.1428571 L24.1602057,94.1428571 L19.7997805,86.9165889 L29.1230804,94.1428571 L32.7,81 L35.5617004,94.1428571 L45.6002195,86.9165889 L41.2397943,94.1428571 L126.160206,94.1428571 L121.799781,86.9165889 L131.234344,94.1428571 L134.7,81 L136.509723,94.1428571 L147.600219,86.9165889 L143.239794,94.1428571 L156.006535,94.1428571 C160.642118,94.1428571 164.4,97 164.4,97 Z" id="path-10" fill="#64B35D" sketch:type="MSShapeGroup"></path>
                <path d="M57.4,30.6 C57.4,34.0847698 58.5883181,37.2919931 60.5818393,39.8385547 C55.5084833,42.2438458 52,47.4121978 52,53.4 C52,61.6842712 58.7157287,68.4 67,68.4 C71.5622977,68.4 75.6488715,66.3631842 78.4,63.149274 L78.4,71.6 L86.8,71.6 L86.8,64.3982717 C89.4764773,66.8816446 93.0609232,68.4 97,68.4 C105.284271,68.4 112,61.6842712 112,53.4 C112,47.751241 108.877585,42.8317611 104.264552,40.2733571 C106.470368,37.6617555 107.8,34.2861538 107.8,30.6 C107.8,24.2076849 103.801465,18.7492776 98.1691252,16.5895077 C98.189606,16.2623043 98.2,15.932366 98.2,15.6 C98.2,6.9843579 91.2156421,0 82.6,0 C73.9843579,0 67,6.9843579 67,15.6 C67,15.932366 67.010394,16.2623043 67.0308748,16.5895077 C61.3985348,18.7492776 57.4,24.2076849 57.4,30.6 Z" id="path-6" fill="#317109" sketch:type="MSShapeGroup"></path>
                <path d="M67.2827992,75.8936171 C62.1464669,75.8936171 58,79.9468689 58,84.9468085 L58.0000004,94.1431274 L106.144787,94.1431274 L106.144786,84.9468085 C106.144786,79.9457696 101.988736,75.8936171 96.8619876,75.8936171 L96.0310386,75.8936171 C95.5522976,73.1207571 93.074509,71 90.0898018,71 L74.054985,71 C71.0656093,71 68.590674,73.1162806 68.1133361,75.8936171 L67.2827992,75.8936171 Z M71.5407213,86.9042553 C71.5407213,85.9583208 72.2982706,85.1914894 73.2548678,85.1914894 L93.39746,85.1914894 C94.344157,85.1914894 95.1116065,85.9517259 95.1116065,86.9042553 C95.1116065,87.8501899 94.3540572,88.6170213 93.39746,88.6170213 L73.2548678,88.6170213 C72.3081708,88.6170213 71.5407213,87.8567847 71.5407213,86.9042553 Z" id="path-3-path" fill="#EA7617" sketch:type="MSShapeGroup"></path>
            </g>
        </g>
    </g>
</svg>